<svg width="53" height="52" viewBox="0 0 53 52" fill="none" xmlns="http://www.w3.org/2000/svg">
<path fill-rule="evenodd" clip-rule="evenodd" d="M34.3344 5.4325C34.1443 5.4325 33.9306 5.40875 33.7406 5.3375C31.4135 4.5207 28.9631 4.11096 26.4968 4.12625C23.9556 4.12625 21.5331 4.55375 19.2531 5.3375C18.3031 5.64625 17.3056 5.17125 16.9731 4.245C16.6406 3.31875 17.1394 2.2975 18.0656 1.965C20.7256 1.03875 23.5518 0.563751 26.4968 0.563751C29.4418 0.563751 32.2918 1.03875 34.9281 1.965C35.1857 1.96791 35.4397 2.02669 35.6724 2.13727C35.9052 2.24785 36.1111 2.40761 36.2761 2.60552C36.4411 2.80343 36.5612 3.03477 36.6281 3.2836C36.695 3.53242 36.7071 3.7928 36.6637 4.04677C36.6202 4.30074 36.5221 4.54225 36.3762 4.75464C36.2303 4.96702 36.0401 5.14523 35.8187 5.27697C35.5972 5.40871 35.3498 5.49084 35.0936 5.51769C34.8373 5.54454 34.5783 5.51548 34.3344 5.4325ZM9.70874 44.5749C9.25749 44.5749 8.80624 44.4086 8.44999 44.0524C-1.50126 34.1011 -1.50126 17.9036 8.44999 7.95238C9.13874 7.26363 10.2787 7.26363 10.9675 7.95238C11.6562 8.64113 11.6562 9.78113 10.9675 10.4699C2.39374 19.0436 2.39374 32.9849 10.9675 41.5349C11.6562 42.2236 11.6562 43.3636 10.9675 44.0524C10.6112 44.4086 10.16 44.5749 9.70874 44.5749ZM43.2963 44.5749C42.845 44.5749 42.3938 44.4086 42.0375 44.0524C41.7063 43.7172 41.5205 43.2649 41.5205 42.7936C41.5205 42.3224 41.7063 41.8701 42.0375 41.5349C50.6113 32.9611 50.6113 19.0199 42.0375 10.4699C41.7063 10.1347 41.5205 9.68241 41.5205 9.21113C41.5205 8.73986 41.7063 8.28759 42.0375 7.95238C42.7263 7.26363 43.8663 7.26363 44.555 7.95238C54.5063 17.9036 54.5063 34.1011 44.555 44.0524C44.1988 44.4086 43.7475 44.5749 43.2963 44.5749ZM18.0667 50.0161C20.7029 50.9423 23.5292 51.4173 26.4979 51.4411C29.4667 51.4411 32.2929 50.9423 34.9529 50.0161C35.8792 49.6836 36.3779 48.6623 36.0454 47.7361C35.7129 46.8098 34.6917 46.3348 33.7654 46.6436C31.5092 47.4273 29.0629 47.8548 26.5217 47.8548C23.9567 47.8548 21.5342 47.4273 19.2542 46.6436C18.3042 46.3111 17.3067 46.8098 16.9742 47.7361C16.8175 48.1833 16.8446 48.6744 17.0493 49.1018C17.2541 49.5291 17.6199 49.8579 18.0667 50.0161ZM18.7522 22.0338V26V30.0138C18.7522 34.9538 22.2434 36.9725 26.5184 34.5025L29.9622 32.5075L33.4059 30.5125C37.6809 28.0425 37.6809 24.005 33.4059 21.535L29.9622 19.54L26.5184 17.545C22.2434 15.075 18.7522 17.0938 18.7522 22.0338Z" fill="#236E57"/>
</svg>
